<?xml version="1.0" encoding="utf-8"?>
<!-- Generator: Adobe Illustrator 25.2.1, SVG Export Plug-In . SVG Version: 6.00 Build 0)  -->
<svg version="1.1" id="Layer_1" xmlns="http://www.w3.org/2000/svg" xmlns:xlink="http://www.w3.org/1999/xlink" x="0px" y="0px"
	 viewBox="0 0 512 512" style="enable-background:new 0 0 512 512;" xml:space="preserve">
<style type="text/css">
	.st0{fill:#3C5059;}
	.st1{fill:#FFFFFF;}
</style>
<g>
	<circle class="st0" cx="256" cy="256" r="256"/>
	<g>
		<path class="st1" d="M206.93,417.96c-2.99,0-5.97,0-8.96,0c-0.61-0.98-1.73-0.84-2.62-1.09c-17.64-5.01-25.18-26.05-14.69-41.07
			c4.15-5.94,9.87-9.55,16.83-11.71c-12.91,0-25.83,0-38.72,0c-5.99-59.92-11.95-119.48-17.92-179.15c-18.79,0-37.31,0-55.82,0
			c0-5.97,0-11.95,0-17.92c23.97,0,47.93,0,72.04,0c1.22,12.1,2.41,23.93,3.61,35.85c76.96,0,153.61,0,230.27,0
			c0,1.19,0,2.39,0,3.58c-1.16,0.55-0.8,1.75-0.94,2.61c-3.51,22.5-6.95,45.01-10.41,67.51c-2.64,17.18-5.28,34.36-7.96,51.82
			c-66.15,0-132.21,0-198.42,0c0.62,6.14,1.2,11.95,1.79,17.87c72.16,0,144.05,0,215.93,0c0,5.97,0,11.95,0,17.92
			c-19.41,0-38.81,0-58.32,0c0.14,0.33,0.17,0.49,0.22,0.5c12.34,2.39,21.24,12.1,22.18,24.23c0.94,12.09-6.32,23.25-17.75,27.47
			c-1.61,0.59-3.45,0.45-4.88,1.57c-2.99,0-5.97,0-8.96,0c-0.61-0.98-1.73-0.84-2.62-1.09c-11.44-3.27-19.43-13.75-19.48-25.65
			c-0.05-12.05,7.91-22.62,19.48-25.94c0.74-0.21,1.67-0.16,2.28-1.01c-38.74,0-77.31,0-115.95,0c0.19,0.22,0.29,0.44,0.42,0.47
			c12.23,2.44,21.01,12.07,21.99,24.14c0.97,12.08-6.29,23.29-17.75,27.51C210.2,416.99,208.36,416.84,206.93,417.96z"/>
		<path class="st1" d="M355.11,112.04c0,24.18,0,48.37,0,72.72c-11.92,0-23.71,0-35.74,0c0-17.72,0-35.49,0-53.49
			c-23.98,0-47.72,0-71.81,0c0-6.56,0-12.89,0-19.23C283.41,112.04,319.26,112.04,355.11,112.04z"/>
		<path class="st1" d="M301.16,184.87c-35.79,0-71.41,0-107.2,0c0-11.86,0-23.65,0-35.61c35.65,0,71.34,0,107.2,0
			C301.16,161.01,301.16,172.8,301.16,184.87z"/>
	</g>
</g>
</svg>
